<svg width="42" height="42" viewBox="0 0 42 42" fill="none" xmlns="http://www.w3.org/2000/svg">
<path d="M3.00764 24.1215V16.623C3.00764 12.1688 4.91867 7.99064 8.38855 4.86604C11.8013 1.79078 16.3263 0.0966797 21.1287 0.0966797C25.9312 0.0966797 30.4576 1.79232 33.8689 4.86604C37.341 7.99681 39.2513 12.1688 39.2513 16.623V24.1215C40.5004 24.6433 41.8872 25.7093 41.8872 27.8704V37.3506C41.8872 37.3506 41.7715 41.612 37.8389 41.612H35.7924V23.6313H36.6886V16.623C36.6886 8.99878 29.7093 2.79428 21.1295 2.79428C12.5496 2.79428 5.57033 8.99878 5.57033 16.623V23.6313H6.46653V41.612H4.41639C0.483768 41.612 0.36808 37.3506 0.36808 37.3506V27.8704C0.371742 25.7093 1.75925 24.6449 3.00764 24.1215Z" fill="#333333"/>
</svg>
